<svg xmlns="http://www.w3.org/2000/svg" viewBox="0 0 185 125" width="185" height="125">
	<style>
		tspan { white-space:pre }
		.shp0 { fill: #666d89 } 
		.shp1 { fill: none;stroke: #666d89;stroke-width: 2 } 
	</style>
	<path id="star" class="shp0" d="M169.88 90.56C169.6 89.76 168.89 89.17 168.04 89.05L159.71 87.81L156.09 80.29C155.71 79.51 154.9 79 154 79C153.1 79 152.29 79.51 151.91 80.29L148.29 87.81L139.96 89.05C139.11 89.17 138.4 89.76 138.12 90.56C137.84 91.36 138.05 92.24 138.66 92.84L144.76 98.93L143.34 107.39C143.2 108.24 143.57 109.09 144.29 109.59C144.69 109.86 145.16 110 145.62 110C146.01 110 146.39 109.91 146.74 109.72L154 105.81L161.26 109.72C161.61 109.91 161.99 110 162.38 110C162.84 110 163.31 109.86 163.71 109.59C164.43 109.09 164.8 108.24 164.66 107.39L163.24 98.93L169.34 92.84C169.95 92.24 170.16 91.36 169.88 90.56ZM161.59 97.36C161.08 97.87 160.84 98.59 160.96 99.3L162.38 107.75L155.12 103.84C154.77 103.65 154.38 103.56 154 103.56C153.62 103.56 153.23 103.65 152.88 103.84L145.62 107.75L147.04 99.3C147.16 98.59 146.92 97.87 146.41 97.36L140.31 91.27L148.64 90.03C149.4 89.92 150.05 89.44 150.38 88.76L154 81.25L157.62 88.76C157.95 89.44 158.6 89.92 159.36 90.03L167.69 91.27L161.59 97.36Z" />
	<path id="Ellipse" class="shp1" d="M153.5 65C169.79 65 183 78.21 183 94.5C183 110.79 169.79 124 153.5 124C137.21 124 124 110.79 124 94.5C124 78.21 137.21 65 153.5 65Z" />
	<path id="bubble" class="shp0" d="M92 86C86.04 86 81 89.21 81 93C81 93.28 81.22 93.5 81.5 93.5C81.78 93.5 82 93.28 82 93C82 89.8 86.67 87 92 87C92.28 87 92.5 86.78 92.5 86.5C92.5 86.22 92.28 86 92 86ZM92 81C83.16 81 76 86.37 76 93C76 97.13 78.78 100.77 83.01 102.93C83.01 102.95 83 102.97 83 103C83 104.79 81.66 106.72 81.07 107.74C81.07 107.74 81.07 107.74 81.07 107.74C81.03 107.85 81 107.97 81 108.09C81 108.59 81.41 109 81.91 109C82 109 82.17 108.97 82.16 108.99C85.29 108.48 88.23 105.6 88.91 104.77C89.91 104.92 90.94 105 92 105C100.84 105 108 99.63 108 93C108 86.37 100.84 81 92 81ZM92 103C91.08 103 90.14 102.93 89.2 102.79C89.11 102.78 89.01 102.77 88.91 102.77C88.32 102.77 87.75 103.04 87.37 103.5C86.94 104.02 85.72 105.19 84.28 106.04C84.67 105.15 84.98 104.14 85 103.11C85 103.05 85.01 102.98 85.01 102.93C85.01 102.17 84.59 101.49 83.92 101.14C80.21 99.25 78 96.21 78 93C78 87.49 84.28 83 92 83C99.72 83 106 87.49 106 93C106 98.51 99.72 103 92 103Z" />
	<path id="Ellipse" class="shp1" d="M91.5 65C107.79 65 121 78.21 121 94.5C121 110.79 107.79 124 91.5 124C75.21 124 62 110.79 62 94.5C62 78.21 75.21 65 91.5 65Z" />
	<path id="phone" class="shp0" d="M39 79L23 79C21.34 79 20 80.34 20 82L20 108C20 109.66 21.34 111 23 111L39 111C40.66 111 42 109.66 42 108L42 82C42 80.34 40.66 79 39 79ZM40 108C40 108.55 39.55 109 39 109L23 109C22.45 109 22 108.55 22 108L22 106L40 106L40 108ZM40 105L22 105L22 85L40 85L40 105ZM40 84L22 84L22 82C22 81.45 22.45 81 23 81L39 81C39.55 81 40 81.45 40 82L40 84ZM33 82.5C33 82.78 32.78 83 32.5 83L29.5 83C29.22 83 29 82.78 29 82.5L29 82.5C29 82.22 29.22 82 29.5 82L32.5 82C32.78 82 33 82.22 33 82.5L33 82.5ZM32 107.5C32 107.77 31.78 108 31.5 108L30.5 108C30.22 108 30 107.77 30 107.5L30 107.5C30 107.22 30.22 107 30.5 107L31.5 107C31.78 107 32 107.22 32 107.5L32 107.5Z" />
	<path id="Ellipse" class="shp1" d="M30.5 65C46.79 65 60 78.21 60 94.5C60 110.79 46.79 124 30.5 124C14.21 124 1 110.79 1 94.5C1 78.21 14.21 65 30.5 65Z" />
	<path id="heart" class="shp0" d="M168.19 19.79C164.56 16.2 158.76 16.13 155 19.5C151.24 16.13 145.44 16.2 141.81 19.79C138.07 23.49 138.07 29.49 141.81 33.19C142.88 34.25 152.86 44.12 152.86 44.12C154.04 45.29 155.96 45.29 157.14 44.12C157.14 44.12 168.07 33.31 168.19 33.19C171.93 29.49 171.93 23.49 168.19 19.79ZM166.77 31.78L155.71 42.71C155.32 43.1 154.68 43.1 154.29 42.71L143.24 31.78C140.28 28.86 140.28 24.12 143.24 21.2C146.08 18.39 150.65 18.29 153.64 20.98L155 22.2L156.36 20.98C159.35 18.29 163.92 18.39 166.77 21.2C169.72 24.12 169.72 28.86 166.77 31.78ZM148.25 22.03C148.25 22.03 148.25 22.03 148.25 22.03C145.9 22.03 144 23.93 144 26.27L144 26.27C144 26.55 144.23 26.77 144.5 26.77C144.78 26.77 145 26.55 145 26.27L145 26.27C145 24.48 146.46 23.03 148.25 23.03L148.25 23.03C148.53 23.03 148.75 22.8 148.75 22.53C148.75 22.25 148.53 22.03 148.25 22.03Z" />
	<path id="Ellipse" class="shp1" d="M154.5 1C170.79 1 184 14.21 184 30.5C184 46.79 170.79 60 154.5 60C138.21 60 125 46.79 125 30.5C125 14.21 138.21 1 154.5 1Z" />
	<path id="bulb" class="shp0" d="M93 14C86.92 14 82 18.92 82 25C82 29.03 85.69 33.3 87.03 37.05C89.03 42.65 88.81 46 93 46C97.25 46 96.96 42.67 98.97 37.08C100.32 33.32 104 29 104 25C104 18.92 99.08 14 93 14ZM95.59 41.18L90.63 41.8C90.46 41.28 90.27 40.68 90.04 39.9C90.03 39.89 90.03 39.88 90.03 39.87L96.22 39.1C96.13 39.39 96.03 39.7 95.95 39.98C95.82 40.43 95.7 40.82 95.59 41.18ZM89.74 38.91C89.55 38.31 89.35 37.67 89.12 37L96.89 37C96.76 37.36 96.64 37.72 96.54 38.06L89.74 38.91ZM93 44C91.99 44 91.52 43.88 91 42.75L95.24 42.22C94.63 43.87 94.18 44 93 44ZM97.67 35L88.34 35C87.84 33.92 87.24 32.84 86.65 31.78C85.35 29.45 84 27.03 84 25C84 20.04 88.04 16 93 16C97.96 16 102 20.04 102 25C102 27.02 100.65 29.45 99.34 31.8C98.76 32.85 98.17 33.93 97.67 35ZM93 19C89.69 19 87 21.69 87 25C87 25.28 87.22 25.5 87.5 25.5C87.78 25.5 88 25.28 88 25C88 22.24 90.24 20 93 20C93.28 20 93.5 19.78 93.5 19.5C93.5 19.22 93.28 19 93 19Z" />
	<path id="Ellipse" class="shp1" d="M92.5 1C108.79 1 122 14.21 122 30.5C122 46.79 108.79 60 92.5 60C76.21 60 63 46.79 63 30.5C63 14.21 76.21 1 92.5 1Z" />
	<path id="pen" class="shp0" d="M44.4 17.58C42.75 15.94 40.59 15 38.45 15C36.65 15 34.99 15.67 33.78 16.88L28.91 21.78C28.9 21.79 28.88 21.8 28.87 21.82C28.86 21.83 28.85 21.84 28.85 21.85L28.85 21.85L18.52 32.26C18.04 32.73 17.7 33.32 17.5 33.96L15.16 42.47C15.15 42.49 15 43.16 15 43.5C15 45.43 16.57 47 18.5 47C18.89 47 19.63 46.82 19.66 46.81L28.14 44.58C28.78 44.39 29.37 44.04 29.84 43.57L45.11 28.19C47.88 25.41 47.57 20.75 44.4 17.58ZM31.01 38.8C30.93 37.89 30.68 37.01 30.3 36.17L39.75 26.71C40.33 28.54 40.03 30.45 38.76 31.72C38.76 31.73 38.75 31.73 38.74 31.74L38.75 31.75L31.02 39.54C31.03 39.29 31.04 39.05 31.01 38.8ZM29.79 35.26C29.42 34.64 29 34.05 28.47 33.53C27.86 32.92 27.16 32.44 26.43 32.04L35.96 22.5C36.71 22.84 37.42 23.31 38.06 23.94C38.6 24.48 39.02 25.08 39.34 25.71L29.79 35.26ZM25.49 31.56C24.56 31.19 23.59 30.98 22.62 30.96L30.32 23.2C31.5 22.05 33.22 21.72 34.91 22.14L25.49 31.56ZM19.17 44.87C19.06 44.9 18.72 44.98 18.49 45C17.67 44.99 17 44.32 17 43.5C17.01 43.33 17.08 43.04 17.1 42.94L18.15 39.12C19.3 39.09 20.53 39.54 21.49 40.51C22.48 41.49 22.94 42.74 22.89 43.9L19.17 44.87ZM23.87 43.64C23.85 42.3 23.3 40.9 22.2 39.8C21.16 38.76 19.8 38.15 18.44 38.1L19.43 34.49C19.5 34.25 19.65 34.02 19.82 33.81C21.83 32.37 24.91 32.8 27.06 34.94C29.32 37.21 29.67 40.53 27.93 42.51C27.81 42.57 27.7 42.63 27.57 42.67L23.87 43.64ZM43.69 26.77L42.01 28.47C42.01 28.24 42.04 28.03 42.01 27.8C41.84 25.86 40.94 23.99 39.47 22.53C37.84 20.9 35.68 19.96 33.54 19.96L35.2 18.29C36.03 17.46 37.18 17 38.45 17C40.06 17 41.71 17.73 42.98 19C44.18 20.19 44.89 21.67 44.99 23.16C45.08 24.56 44.62 25.84 43.69 26.77Z" />
	<path id="Ellipse" class="shp1" d="M30.5 1C46.79 1 60 14.21 60 30.5C60 46.79 46.79 60 30.5 60C14.21 60 1 46.79 1 30.5C1 14.21 14.21 1 30.5 1Z" />
</svg>